<svg xmlns="http://www.w3.org/2000/svg" width="1214.01" height="922.75" viewBox="0 0 1214.01 922.75">
  <defs>
    <style>
      .cls-1 {
        fill: #1a009f;
      }

      .cls-2 {
        fill: #7a7a7a;
      }

      .cls-3 {
        fill: #e4e4e6;
      }

      .cls-4 {
        fill: #0056f3;
      }

      .cls-5 {
        fill: #fcdf00;
      }

      .cls-6 {
        fill: #fcba21;
      }

      .cls-7 {
        fill: #f29d0a;
      }

      .cls-8 {
        fill: #f77d00;
      }
    </style>
  </defs>
  <g id="Capa_3" data-name="Capa 3">
    <g>
      <g>
        <path class="cls-1" d="M638.37,493.85a367,367,0,0,0-38.15,30.21l38.15,117.19" transform="translate(-335.99 -328.53)"/>
        <path class="cls-2" d="M638.37,641.25l36.49,112.06s27.77,72.78,83.83,72.78h86L772.55,458.2s-5.62-19.53,3.17-32.45c0,0-71.73,22.55-137.35,68.1" transform="translate(-335.99 -328.53)"/>
      </g>
      <path class="cls-3" d="M943.3,328.86v921.46l-305.34.25.41-609.69,35.28,109.26s27.72,75.59,85,75.59h86l-72.19-367.9,3.17-32.44c21.44-104.26,167.58-96.53,167.58-96.53" transform="translate(-335.99 -328.53)"/>
      <path class="cls-3" d="M770.86,441.23s-.15-7.33,4.86-15.84l-3.17,32.44S769.8,447.93,770.86,441.23Z" transform="translate(-335.99 -328.53)"/>
      <rect class="cls-2" x="302.38" y="780.06" width="304.9" height="141.74"/>
      <path class="cls-4" d="M336,1179.15c0,70.55,71.13,72.13,71.13,72.13l230.84-.07.41-597.45V641.52L600.22,524.34S408.08,677.48,408.08,923.9v185.44s-72.09-.75-72.09,69.81" transform="translate(-335.99 -328.53)"/>
      <path class="cls-1" d="M336.1,1179c0,70.56,71.13,72.13,71.13,72.13l230.84-.07.1-141.88" transform="translate(-335.99 -328.53)"/>
      <path class="cls-1" d="M408.19,1109.23c-3.27-.14-38.56-1-59.34,27.08-12.89,17.42-13,36.27-12.75,42.73l17.12,18.61c50.63-23.33,92.81-31.41,122.07-34.46,44.91-4.69,82.89,0,125-24.42a160.29,160.29,0,0,0,37.34-30.16" transform="translate(-335.99 -328.53)"/>
      <path class="cls-5" d="M942.69,328.66v921.46l305.34.24-.41-609.68-35.28,109.25s-27.72,75.6-85,75.6h-86l72.19-367.9-3.17-32.44c-21.44-104.26-167.58-96.53-167.58-96.53" transform="translate(-335.99 -328.53)"/>
      <path class="cls-5" d="M1115.13,441s.15-7.34-4.86-15.84l3.17,32.44S1116.19,447.73,1115.13,441Z" transform="translate(-335.99 -328.53)"/>
      <rect class="cls-6" x="942.72" y="1108.38" width="304.9" height="141.74" transform="translate(1854.35 2029.97) rotate(-180)"/>
      <g>
        <path class="cls-7" d="M1248,1250.36l-.41-597.44V640.68l38.15-117.19s192.14,153.14,192.14,399.57v185.43s72.09-.74,72.09,69.81-71.13,72.13-71.13,72.13Z" transform="translate(-335.99 -328.53)"/>
        <path class="cls-8" d="M1477.8,1108.38s72.09-.74,72.09,69.82-71.13,72.13-71.13,72.13l-230.84-.08-.1-141.87" transform="translate(-335.99 -328.53)"/>
      </g>
      <g>
        <path class="cls-8" d="M1247.37,493.21a367.06,367.06,0,0,1,38.16,30.21l-38.16,117.19" transform="translate(-335.99 -328.53)"/>
        <path class="cls-6" d="M1247.37,640.61l-36.49,112.06s-27.76,72.78-83.83,72.78h-86l72.19-367.89s5.63-19.53-3.17-32.45c0,0,71.73,22.55,137.35,68.1" transform="translate(-335.99 -328.53)"/>
      </g>
    </g>
  </g>
</svg>
